# xmcd
#
# Track frame offsets: 
#        150
#        18635
#        32207
#        48571
#        65491
#        96850
#        114572
#        140171
#        159662
#        178058
#        190474
#        197098
#        217126
#        237430
#        254538
#        285676
#
# Disc length: 4079 seconds
#
# Revision: 0
# Processed by: cddbd v1.5.2PL0 Copyright (c) Steve Scherf et al.
# Submitted via: ExactAudioCopy v0.95b4
#
DISCID=040fed10
DTITLE=K.D. lang - Live by request (audio only)
DYEAR=2001
DGENRE=Country
TTITLE0=Summerfling
TTITLE1=Big boned gal
TTITLE2=Black Coffee
TTITLE3=Trail of broken hearts
TTITLE4=The consequences of falling
TTITLE5=Don't smoke in bed
TTITLE6=The consequences of falling
TTITLE7=Miss chatalaine
TTITLE8=Macarthur park
TTITLE9=Three cigarettes in an ashtray
TTITLE10=Fever
TTITLE11=Barefoot
TTITLE12=Constant Craving
TTITLE13=Wash me clean
TTITLE14=Pulling back the reins
TTITLE15=Simple
EXTD=
EXTT0=
EXTT1=
EXTT2=
EXTT3=
EXTT4=
EXTT5=
EXTT6=
EXTT7=
EXTT8=
EXTT9=
EXTT10=
EXTT11=
EXTT12=
EXTT13=
EXTT14=
EXTT15=
PLAYORDER=
